#!OML:ASF F:\VICON\USERDATA\INSTALL\rory3\rory3.ASF
:FULLY-SPECIFIED
:DEGREES
213
root 4.60091 17.4516 0.934599 13.1766 -0.391276 -2.05277
lowerback -4.16476 -0.016632 12.8384
upperback -7.81317 -0.0291806 1.05041
thorax -6.03188 -0.733058 -6.05995
lowerneck -9.13745 7.17758 2.26878
upperneck 35.8236 8.8765 3.71768
head 13.5328 4.70611 2.31458
rclavicle 4.57205e-015 1.59028e-014
rhumerus 6.35463 -22.6443 4.38792
rradius 116.218
rwrist -64.1768
rhand -2.50772 -43.7811
rfingers 7.12502
rthumb 23.1864 -72.4056
lclavicle 4.57205e-015 1.59028e-014
lhumerus 33.9442 32.5032 -5.84989
lradius 44.6832
lwrist 41.3439
lhand -28.9706 -23.9926
lfingers 7.12502
lthumb -2.3233 5.97452
rfemur -12.8439 5.03597 -0.763656
rtibia 32.0076
rfoot 15.5822 -19.6715
rtoes -16.4538
lfemur -19.7294 2.87072 -28.7362
ltibia 23.3387
lfoot -16.0088 8.34833
ltoes 13.0023
214
root 4.60723 17.4488 0.937562 13.0857 -0.450825 -2.08581
lowerback -4.24269 -0.00856641 12.9068
upperback -7.74254 -0.0375591 1.03513
thorax -5.91369 -0.731536 -6.1155
lowerneck -9.04488 7.07448 2.41718
upperneck 36.0595 8.78313 3.46129
head 13.6457 4.64746 2.18514
rclavicle -2.38542e-015 2.06736e-014
rhumerus 6.31994 -22.5679 4.13924
rradius 116.195
rwrist -64.1403
rhand -2.69316 -44.0272
rfingers 7.12502
rthumb 23.0084 -72.6739
lclavicle -2.38542e-015 2.06736e-014
lhumerus 33.8174 32.2998 -5.92209
lradius 45.0574
lwrist 41.5138
lhand -29.095 -23.818
lfingers 7.12502
lthumb -2.4435 6.14773
rfemur -12.7858 5.11946 -0.741916
rtibia 32.0556
rfoot 14.2993 -21.0203
rtoes -12.3142
lfemur -19.6791 2.85887 -28.7306
ltibia 23.4366
lfoot -16.023 8.47682
ltoes 12.9171
215
root 4.61707 17.4457 0.947672 12.9846 -0.526185 -2.16615
lowerback -4.47209 0.0141332 13.0716
upperback -7.53284 -0.0627266 1.02291
thorax -5.56281 -0.72299 -6.22353
lowerneck -9.39513 6.92839 2.3246
upperneck 36.3976 8.59164 3.43228
head 13.873 4.53826 2.19783
rclavicle 0 2.3059e-014
rhumerus 6.28981 -22.6367 3.84456
rradius 116.192
rwrist -64.0102
rhand -2.71016 -44.2022
rfingers 7.12502
rthumb 22.9921 -72.8509
lclavicle 0 2.3059e-014
lhumerus 33.7982 32.5807 -5.75136
lradius 45.4327
lwrist 41.6124
lhand -28.8461 -23.6664
lfingers 7.12502
lthumb -2.2031 6.302
rfemur -12.67 5.07237 -0.687621
rtibia 32.1156
rfoot 13.7051 -21.3889
rtoes -10.4691
lfemur -19.5797 2.81812 -28.6869
ltibia 23.5262
lfoot -16.1303 8.62609
ltoes 13.1863
216
root 4.61749 17.4458 0.949973 12.891 -0.675206 -2.31467
lowerback -4.53272 0.0383898 13.1159
upperback -7.331 -0.0556212 1.0768
thorax -5.30557 -0.695001 -6.1929
lowerneck -9.95004 6.76936 2.00349
upperneck 36.8188 8.37752 3.56553
head 14.1626 4.4073 2.3235
rclavicle 7.50412e-015 -1.59028e-015
rhumerus 6.26236 -22.7999 3.53996
rradius 116.196
rwrist -63.939
rhand -2.45386 -44.2986
rfingers 7.12502
rthumb 23.238 -72.9165
lclavicle 7.50412e-015 -1.59028e-015
lhumerus 33.9699 33.0609 -5.33295
lradius 45.7047
lwrist 41.4541
lhand -28.4493 -23.5584
lfingers 7.12502
lthumb -1.81986 6.41357
rfemur -12.7156 5.21923 -0.516542
rtibia 32.211
rfoot 14.298 -20.9565
rtoes -12.1437
lfemur -19.5517 2.8461 -28.5331
ltibia 23.6487
lfoot -16.2245 8.7537
ltoes 13.5089
217
root 4.62066 17.4439 0.932294 12.8932 -0.547507 -2.21177
lowerback -4.4076 -0.04714 13.0341
upperback -7.33975 -0.148523 1.06022
thorax -5.40294 -0.743689 -6.16399
lowerneck -10.0988 6.57874 1.67031
upperneck 37.1126 8.15092 3.6351
head 14.3098 4.26634 2.39647
rclavicle -9.83984e-015 2.54444e-014
rhumerus 6.19338 -22.7521 3.30075
rradius 116.202
rwrist -63.943
rhand -2.5375 -44.0821
rfingers 7.12502
rthumb 23.1578 -72.7101
lclavicle -9.83984e-015 2.54444e-014
lhumerus 33.9387 33.1398 -5.1948
lradius 46.04
lwrist 41.4383
lhand -28.3366 -23.3613
lfingers 7.12502
lthumb -1.71096 6.61159
rfemur -12.8077 4.94969 -0.597447
rtibia 32.3625
rfoot 15.2638 -20.107
rtoes -15.042
lfemur -19.6864 2.71673 -28.6316
ltibia 23.7986
lfoot -16.2455 8.71433
ltoes 13.6929
218
root 4.61925 17.4426 0.909116 12.958 -0.437291 -2.26426
lowerback -4.19958 -0.105894 13.0082
upperback -7.42721 -0.18433 1.109
thorax -5.62392 -0.775682 -6.09452
lowerneck -9.9338 6.45849 1.59327
upperneck 37.1732 8.0585 3.4556
head 14.3084 4.19139 2.31852
rclavicle 1.38155e-014 -3.97569e-014
rhumerus 6.08415 -22.5897 3.18909
rradius 116.175
rwrist -63.8477
rhand -2.69576 -43.5033
rfingers 7.12502
rthumb 23.0059 -72.1503
lclavicle 1.38155e-014 -3.97569e-014
lhumerus 33.9104 33.1243 -5.00827
lradius 46.4279
lwrist 41.6357
lhand -27.9276 -23.116
lfingers 7.12502
lthumb -1.31595 6.85965
rfemur -13.0476 4.85202 -0.491433
rtibia 32.5349
rfoot 16.2658 -19.3572
rtoes -17.7209
lfemur -19.9509 2.60187 -28.5429
ltibia 23.9526
lfoot -16.1467 8.75485
ltoes 13.5125
219
root 4.61808 17.4405 0.896327 12.9898 -0.456743 -2.44728
lowerback -3.97806 -0.108594 13.0707
upperback -7.53049 -0.141013 1.19197
thorax -5.85736 -0.773449 -6.03786
lowerneck -9.64119 6.39043 1.71668
upperneck 37.2229 8.04831 3.13564
head 14.2933 4.16235 2.15619
rclavicle -9.39258e-015 -6.36111e-015
rhumerus 5.99933 -22.3871 3.08719
rradius 116.151
rwrist -63.8225
rhand -2.47354 -43.2155
rfingers 7.12502
rthumb 23.2191 -71.8358
lclavicle -9.39258e-015 -6.36111e-015
lhumerus 33.8236 32.9789 -4.92441
lradius 46.9155
lwrist 42.0377
lhand -26.9437 -22.6278
lfingers 7.12502
lthumb -0.365729 7.35164
rfemur -13.2884 4.92721 -0.274229
rtibia 32.6879
rfoot 17.16 -18.7103
rtoes -19.8616
lfemur -20.1312 2.56735 -28.3365
ltibia 24.0776
lfoot -16.046 8.90334
ltoes 13.1011
220
root 4.62309 17.4366 0.900183 12.941 -0.524492 -2.46994
lowerback -3.97679 -0.117512 13.0764
upperback -7.54502 -0.151834 1.18934
thorax -5.87662 -0.781171 -6.04349
lowerneck -9.36317 6.29889 1.7248
upperneck 37.3664 7.96631 2.99309
head 14.308 4.10838 2.07887
rclavicle 1.67973e-014 -1.82882e-014
rhumerus 5.92846 -22.3157 2.85779
rradius 116.177
rwrist -64.0315
rhand -1.89798 -43.3581
rfingers 7.12502
rthumb 23.7712 -71.9077
lclavicle 1.67973e-014 -1.82882e-014
lhumerus 33.6462 32.8194 -4.9928
lradius 47.444
lwrist 42.2304
lhand -26.3192 -22.3532
lfingers 7.12502
lthumb 0.237491 7.62641
rfemur -13.336 4.90233 -0.278512
rtibia 32.8292
rfoot 17.4206 -18.4428
rtoes -20.62
lfemur -20.113 2.56565 -28.3435
ltibia 24.1999
lfoot -16.1548 9.00197
ltoes 12.7964
